<svg xmlns="http://www.w3.org/2000/svg" width="226.88" height="227.412" viewBox="0 0 226.88 227.412">
  <g id="Group_3" data-name="Group 3" transform="translate(-1257.34 -170)">
    <circle id="Ellipse_5" data-name="Ellipse 5" cx="113.44" cy="113.44" r="113.44" transform="translate(1257.34 170)" fill="#f2f2f2"/>
    <path id="Path_7" data-name="Path 7" d="M824.323,137.043a106.586,106.586,0,0,1-7.6,24.271c-20.011,42.333,36.976,28.535,57.342,28.535,22.267,0,43.571,11.709,40.317-40.317-1.39-22.223-18.051-40.317-40.317-40.317C855.041,109.215,828.3,117.668,824.323,137.043Z" transform="translate(500.16 102.025)" fill="#2f2e41"/>
    <circle id="Ellipse_12" data-name="Ellipse 12" cx="32.762" cy="32.762" r="32.762" transform="translate(1338.122 226.34)" fill="#ffb6b6"/>
    <path id="Path_8" data-name="Path 8" d="M848.475,123.68a37.528,37.528,0,0,1,57.056,32.752c-16.694,4.191-34.232,7.4-52.035,1l-4.2-10.29-2.479,10.3c-5.422,2.216-10.857,4.091-16.293-.021A38.318,38.318,0,0,1,848.475,123.68Z" transform="translate(500.16 102.025)" fill="#2f2e41"/>
    <path id="Path_18" data-name="Path 18" d="M958.825,256.845a113.4,113.4,0,0,1-158.71,11.47l9.73-27.15a29.2,29.2,0,0,1,24.8-17.03l6.19-.38,14.76-12.73s39.77-1.42,39.18-2.1l24.09,14.49-.02-.1,9.47.58a29.184,29.184,0,0,1,24.8,17.03Z" transform="translate(500.16 102.025)" fill="#845ef7"/>
  </g>
</svg>
