<svg xmlns="http://www.w3.org/2000/svg" width="226.881" height="226.883" viewBox="0 0 226.881 226.883">
  <g id="Group_6" data-name="Group 6" transform="translate(-712.615 -707.169)">
    <path id="Path_2" data-name="Path 2" d="M439.335,718.585a112.938,112.938,0,1,1-33.078-80.362,113.44,113.44,0,0,1,33.078,80.362Z" transform="translate(500.16 102.025)" fill="#f2f2f2"/>
    <path id="Path_9" data-name="Path 9" d="M372.289,691.442h0l-.561,1.012c5-12.313.453-27.485-8.459-36.769s-21.3-13.529-33.5-15.213c-9.057-1.25-18.457-1.214-27.069,2.1-12.47,4.8-22,15.925-29.953,27.494-3.639,5.292-7.216,11.324-6.854,17.938.337,6.138,3.98,11.346,6.963,16.553s5.475,11.668,3.334,17.351c-1.276,3.387-3.973,5.826-6.161,8.6s-3.988,6.515-2.931,9.991a8.152,8.152,0,0,0,6.073,5.278c2.645.617,5.39.214,8.069-.191l69.54-10.506a29.637,29.637,0,0,0,21.512-43.638Z" transform="translate(500.16 102.025)" fill="#2f2e41"/>
    <circle id="Ellipse_16" data-name="Ellipse 16" cx="33.999" cy="33.999" r="33.999" transform="translate(781.719 830.733) rotate(-80.783)" fill="#ffb9b9"/>
    <path id="Path_10" data-name="Path 10" d="M411.075,793.485a113.4,113.4,0,0,1-158.71,11.47l9.73-27.15a29.2,29.2,0,0,1,24.8-17.03l6.19-.38,14.76-12.73s39.77-1.42,39.18-2.1l24.09,14.49-.02-.1,9.47.58a29.184,29.184,0,0,1,24.8,17.03Z" transform="translate(500.16 102.025)" fill="#845ef7"/>
    <path id="Path_12" data-name="Path 12" d="M352.814,669.041c-.878-4.643-5.613-6.766-9.67-7.8a93.152,93.152,0,0,0-36.036-1.979c-8.767,1.25-17.742,4.007-24.1,10.85a32.416,32.416,0,0,0-8.2,20.877,24.861,24.861,0,0,0,2.976,13.263c2.289,3.875,6.191,6.685,10.219,6.586l.408,1.419c17.07-2.378,32.926-13,42.913-28.744a36.825,36.825,0,0,1-10.759,17.38A67.035,67.035,0,0,0,349.5,678.6C351.521,675.916,353.481,672.573,352.814,669.041Z" transform="translate(500.16 102.025)" fill="#2f2e41"/>
  </g>
</svg>
