<svg xmlns="http://www.w3.org/2000/svg" width="226.88" height="226.88" viewBox="0 0 226.88 226.88">
  <g id="Group_7" data-name="Group 7" transform="translate(-712 -430.531)">
    <circle id="Ellipse_1" data-name="Ellipse 1" cx="113.44" cy="113.44" r="113.44" transform="translate(712 430.531)" fill="#f2f2f2"/>
    <circle id="Ellipse_2" data-name="Ellipse 2" cx="45.236" cy="45.236" r="45.236" transform="translate(781.218 458.228)" fill="#2f2e41"/>
    <circle id="Ellipse_13" data-name="Ellipse 13" cx="40.411" cy="40.411" r="40.411" transform="translate(786.06 473.819)" fill="#ffb8b8"/>
    <path id="Path_13" data-name="Path 13" d="M410.075,516.485a113.4,113.4,0,0,1-158.71,11.47l9.73-27.15a29.2,29.2,0,0,1,24.8-17.03l6.19-.38,14.76-12.73s39.77-1.42,39.18-2.1l24.09,14.49-.02-.1,9.47.58a29.184,29.184,0,0,1,24.8,17.03Z" transform="translate(500.16 102.025)" fill="#845ef7"/>
    <path id="Path_22" data-name="Path 22" d="M368.947,398.033a89.422,89.422,0,0,0,.389-9.077,42.725,42.725,0,0,0-3.223-17.495,26.883,26.883,0,0,0-14.066-13.589,25.665,25.665,0,0,0-19.243.017c-5.57-3.519-11.759-6.309-18.276-6.655s-13.409,2.072-17.425,7.4a28.44,28.44,0,0,1-3.044,3.955c-3.229,2.99-8.135,2.559-12.426,1.947l5.776,4.949-6.99,1.826,8.157,4.947c-7.893,4.738-11.481,15.078-10.533,24.47.9,8.892,5.189,17.022,10.321,24.249,2.047-4.32,1.606-9.489,1.572-14.354a32.492,32.492,0,0,1,.288-4.72c17.343,4.157,35.464,6.825,53.84.223l3.688-9.026c.518.053,1.035.1,1.553.158l2.137,8.876c4.844,1.98,9.7,3.71,14.554,1.892.236,1.371.379,2.77.488,4.115.417-1.609.778-3.229,1.1-4.856a14.361,14.361,0,0,0,1.839-1.174,39.511,39.511,0,0,0-.478-8.074Z" transform="translate(500.16 102.025)" fill="#2f2e41"/>
  </g>
</svg>
