<svg xmlns="http://www.w3.org/2000/svg" width="226.88" height="227.412" viewBox="0 0 226.88 227.412">
  <g id="Group_1" data-name="Group 1" transform="translate(-980.86 -170)">
    <circle id="Ellipse_4" data-name="Ellipse 4" cx="113.44" cy="113.44" r="113.44" transform="translate(980.86 170)" fill="#f2f2f2"/>
    <circle id="Ellipse_14" data-name="Ellipse 14" cx="36.991" cy="36.991" r="36.991" transform="translate(1061.933 221.03)" fill="#ffb8b8"/>
    <path id="bf427902-b9bf-4946-b5d7-5c1c7e04535e" d="M631.333,131.559s9.631-18.412-11.558-20.086c0,0-18.064-16.386-36.475-3,0,0-10.043,0-15.534,11.365,0,0-7.9-3-9.634,5.021,0,0-5.78,16.738,0,31.8s7.7,16.738,7.7,16.738-4.055-18.694,19.062-20.368,44.325-16.156,46.251,2.256,4.044,10.094,4.044,10.094S653.485,139.091,631.333,131.559Z" transform="translate(500.16 102.025)" fill="#2f2e41"/>
    <path id="Path_17" data-name="Path 17" d="M678.825,256.845a113.4,113.4,0,0,1-158.71,11.47l9.73-27.15a29.2,29.2,0,0,1,24.8-17.03l6.19-.38,14.76-12.73s39.77-1.42,39.18-2.1l24.09,14.49-.02-.1,9.47.58a29.184,29.184,0,0,1,24.8,17.03Z" transform="translate(500.16 102.025)" fill="#845ef7"/>
  </g>
</svg>
