<svg width="32" height="32" xmlns="http://www.w3.org/2000/svg" fill="none">
 <g>
  <title>Layer 1</title>
  <path fill-rule="evenodd" clip-rule="evenodd" d="m0,0l32,0l0,32l-32,0l0,-32zm8,16.1675c0,-4.4036 3.5718,-7.9755 7.9755,-7.9755c4.4037,0 7.9755,3.5719 8.0245,7.9755c0,3.523 -2.2508,6.5077 -5.4312,7.5841c-0.3914,0.049 -0.5382,-0.1957 -0.5382,-0.3914l0,-2.2018c0,-0.734 -0.2447,-1.2233 -0.5382,-1.4679c1.7614,-0.1957 3.6208,-0.8318 3.6208,-3.9144c0,-0.8807 -0.3426,-1.6147 -0.8318,-2.1529c0.0038,-0.0154 0.0092,-0.0347 0.0156,-0.0577c0.0749,-0.2702 0.2922,-1.0544 -0.1135,-2.0463c0,0 -0.685,-0.1957 -2.2019,0.8318c-0.636,-0.1468 -1.3211,-0.2446 -2.0061,-0.2446c-0.685,0 -1.37,0.0489 -2.0061,0.2446c-1.5168,-1.0275 -2.2018,-0.8318 -2.2018,-0.8318c-0.4325,1.0571 -0.1571,1.8783 -0.1007,2.0465l0.0028,0.0086c-0.5382,0.5871 -0.8318,1.2721 -0.8318,2.1529c0,3.0825 1.8594,3.7676 3.6208,3.9633c-0.1957,0.1957 -0.4403,0.5382 -0.4893,1.0764c-0.4403,0.1957 -1.5657,0.5383 -2.2997,-0.685c0,0 -0.4403,-0.7829 -1.2232,-0.8318c0,0 -0.78286,0 -0.0489,0.4893c0,0 0.5382,0.2447 0.8807,1.1743c0,0 0.4893,1.5658 2.6911,1.0765l0,1.37c0,0.1957 -0.1468,0.4404 -0.5382,0.3914c-3.1315,-1.0764 -5.4312,-4.0611 -5.4312,-7.5841z" fill="#ffffff" id="svg_1"/>
 </g>

</svg>